<mxfile host="app.diagrams.net" modified="2023-08-28T19:34:47.121Z" agent="Mozilla/5.0 (X11; Linux x86_64) AppleWebKit/537.36 (KHTML, like Gecko) Chrome/116.0.0.0 Safari/537.36" etag="I0RL4J6HRGi_O1fENlCk" version="21.6.9" type="github">
  <diagram name="Page-1" id="wNto5OQoNlqD2_7EK3Hi">
    <mxGraphModel dx="1070" dy="1091" grid="1" gridSize="10" guides="1" tooltips="1" connect="1" arrows="1" fold="1" page="1" pageScale="1" pageWidth="850" pageHeight="1100" math="0" shadow="0">
      <root>
        <mxCell id="0" />
        <mxCell id="1" parent="0" />
        <mxCell id="yeH-hPrjxJTJbFUgPPx8-1" style="edgeStyle=orthogonalEdgeStyle;rounded=0;orthogonalLoop=1;jettySize=auto;html=1;exitX=1;exitY=0.5;exitDx=0;exitDy=0;entryX=0;entryY=0.5;entryDx=0;entryDy=0;" edge="1" parent="1" source="yeH-hPrjxJTJbFUgPPx8-2" target="yeH-hPrjxJTJbFUgPPx8-6">
          <mxGeometry relative="1" as="geometry" />
        </mxCell>
        <mxCell id="yeH-hPrjxJTJbFUgPPx8-2" value="next" style="rounded=0;whiteSpace=wrap;html=1;" vertex="1" parent="1">
          <mxGeometry x="205" y="310" width="110" height="60" as="geometry" />
        </mxCell>
        <mxCell id="yeH-hPrjxJTJbFUgPPx8-3" value="data" style="rounded=0;whiteSpace=wrap;html=1;" vertex="1" parent="1">
          <mxGeometry x="205" y="250" width="110" height="60" as="geometry" />
        </mxCell>
        <mxCell id="yeH-hPrjxJTJbFUgPPx8-4" style="edgeStyle=orthogonalEdgeStyle;rounded=0;orthogonalLoop=1;jettySize=auto;html=1;exitX=1;exitY=0.5;exitDx=0;exitDy=0;entryX=0;entryY=0.5;entryDx=0;entryDy=0;" edge="1" parent="1" source="yeH-hPrjxJTJbFUgPPx8-5" target="yeH-hPrjxJTJbFUgPPx8-9">
          <mxGeometry relative="1" as="geometry" />
        </mxCell>
        <mxCell id="yeH-hPrjxJTJbFUgPPx8-5" value="next" style="rounded=0;whiteSpace=wrap;html=1;" vertex="1" parent="1">
          <mxGeometry x="395" y="310" width="110" height="60" as="geometry" />
        </mxCell>
        <mxCell id="yeH-hPrjxJTJbFUgPPx8-6" value="data" style="rounded=0;whiteSpace=wrap;html=1;" vertex="1" parent="1">
          <mxGeometry x="395" y="250" width="110" height="60" as="geometry" />
        </mxCell>
        <mxCell id="yeH-hPrjxJTJbFUgPPx8-7" style="edgeStyle=orthogonalEdgeStyle;rounded=0;orthogonalLoop=1;jettySize=auto;html=1;exitX=1;exitY=0.5;exitDx=0;exitDy=0;" edge="1" parent="1" source="yeH-hPrjxJTJbFUgPPx8-8">
          <mxGeometry relative="1" as="geometry">
            <mxPoint x="735" y="340" as="targetPoint" />
          </mxGeometry>
        </mxCell>
        <mxCell id="yeH-hPrjxJTJbFUgPPx8-8" value="next" style="rounded=0;whiteSpace=wrap;html=1;" vertex="1" parent="1">
          <mxGeometry x="585" y="310" width="110" height="60" as="geometry" />
        </mxCell>
        <mxCell id="yeH-hPrjxJTJbFUgPPx8-9" value="data" style="rounded=0;whiteSpace=wrap;html=1;" vertex="1" parent="1">
          <mxGeometry x="585" y="250" width="110" height="60" as="geometry" />
        </mxCell>
        <mxCell id="yeH-hPrjxJTJbFUgPPx8-10" value="NULL" style="text;html=1;strokeColor=none;fillColor=none;align=center;verticalAlign=middle;whiteSpace=wrap;rounded=0;" vertex="1" parent="1">
          <mxGeometry x="755" y="325" width="60" height="30" as="geometry" />
        </mxCell>
        <mxCell id="yeH-hPrjxJTJbFUgPPx8-12" value="Head" style="text;html=1;strokeColor=none;fillColor=none;align=center;verticalAlign=middle;whiteSpace=wrap;rounded=0;" vertex="1" parent="1">
          <mxGeometry x="115" y="265" width="60" height="30" as="geometry" />
        </mxCell>
        <mxCell id="yeH-hPrjxJTJbFUgPPx8-37" style="edgeStyle=orthogonalEdgeStyle;rounded=0;orthogonalLoop=1;jettySize=auto;html=1;exitX=1;exitY=0.5;exitDx=0;exitDy=0;entryX=0;entryY=0.5;entryDx=0;entryDy=0;" edge="1" parent="1" source="yeH-hPrjxJTJbFUgPPx8-13" target="yeH-hPrjxJTJbFUgPPx8-14">
          <mxGeometry relative="1" as="geometry" />
        </mxCell>
        <mxCell id="yeH-hPrjxJTJbFUgPPx8-13" value="start" style="ellipse;whiteSpace=wrap;html=1;" vertex="1" parent="1">
          <mxGeometry x="225" y="425" width="70" height="50" as="geometry" />
        </mxCell>
        <mxCell id="yeH-hPrjxJTJbFUgPPx8-40" style="edgeStyle=orthogonalEdgeStyle;rounded=0;orthogonalLoop=1;jettySize=auto;html=1;exitX=1;exitY=0.5;exitDx=0;exitDy=0;entryX=0;entryY=0.5;entryDx=0;entryDy=0;" edge="1" parent="1" source="yeH-hPrjxJTJbFUgPPx8-14" target="yeH-hPrjxJTJbFUgPPx8-17">
          <mxGeometry relative="1" as="geometry" />
        </mxCell>
        <mxCell id="yeH-hPrjxJTJbFUgPPx8-14" value="allocate mem&lt;br&gt;for new_node" style="rounded=0;whiteSpace=wrap;html=1;" vertex="1" parent="1">
          <mxGeometry x="355" y="420" width="120" height="60" as="geometry" />
        </mxCell>
        <mxCell id="yeH-hPrjxJTJbFUgPPx8-42" style="edgeStyle=orthogonalEdgeStyle;rounded=0;orthogonalLoop=1;jettySize=auto;html=1;exitX=1;exitY=0.5;exitDx=0;exitDy=0;entryX=0;entryY=0.5;entryDx=0;entryDy=0;" edge="1" parent="1" source="yeH-hPrjxJTJbFUgPPx8-17">
          <mxGeometry relative="1" as="geometry">
            <mxPoint x="739.9999999999939" y="449.9999999999998" as="targetPoint" />
          </mxGeometry>
        </mxCell>
        <mxCell id="yeH-hPrjxJTJbFUgPPx8-17" value="new_node-&amp;gt;next = head&lt;br&gt;head = new_node" style="rounded=0;whiteSpace=wrap;html=1;" vertex="1" parent="1">
          <mxGeometry x="523" y="420" width="155" height="60" as="geometry" />
        </mxCell>
        <mxCell id="yeH-hPrjxJTJbFUgPPx8-46" style="edgeStyle=orthogonalEdgeStyle;rounded=0;orthogonalLoop=1;jettySize=auto;html=1;exitX=1;exitY=0.5;exitDx=0;exitDy=0;entryX=0;entryY=0.5;entryDx=0;entryDy=0;" edge="1" parent="1" source="yeH-hPrjxJTJbFUgPPx8-18" target="yeH-hPrjxJTJbFUgPPx8-3">
          <mxGeometry relative="1" as="geometry" />
        </mxCell>
        <mxCell id="yeH-hPrjxJTJbFUgPPx8-18" value="next" style="rounded=0;whiteSpace=wrap;html=1;" vertex="1" parent="1">
          <mxGeometry x="50" y="450" width="110" height="60" as="geometry" />
        </mxCell>
        <mxCell id="yeH-hPrjxJTJbFUgPPx8-24" style="edgeStyle=orthogonalEdgeStyle;rounded=0;orthogonalLoop=1;jettySize=auto;html=1;exitX=0;exitY=0.5;exitDx=0;exitDy=0;entryX=0;entryY=0.5;entryDx=0;entryDy=0;" edge="1" parent="1" source="yeH-hPrjxJTJbFUgPPx8-19" target="yeH-hPrjxJTJbFUgPPx8-12">
          <mxGeometry relative="1" as="geometry" />
        </mxCell>
        <mxCell id="yeH-hPrjxJTJbFUgPPx8-19" value="data" style="rounded=0;whiteSpace=wrap;html=1;" vertex="1" parent="1">
          <mxGeometry x="50" y="390" width="110" height="60" as="geometry" />
        </mxCell>
        <mxCell id="yeH-hPrjxJTJbFUgPPx8-23" value="new_node" style="text;html=1;strokeColor=none;fillColor=none;align=center;verticalAlign=middle;whiteSpace=wrap;rounded=0;" vertex="1" parent="1">
          <mxGeometry x="75" y="360" width="60" height="30" as="geometry" />
        </mxCell>
        <mxCell id="yeH-hPrjxJTJbFUgPPx8-25" style="edgeStyle=orthogonalEdgeStyle;rounded=0;orthogonalLoop=1;jettySize=auto;html=1;exitX=1;exitY=0.5;exitDx=0;exitDy=0;entryX=0;entryY=0.5;entryDx=0;entryDy=0;" edge="1" parent="1" source="yeH-hPrjxJTJbFUgPPx8-26" target="yeH-hPrjxJTJbFUgPPx8-30">
          <mxGeometry relative="1" as="geometry" />
        </mxCell>
        <mxCell id="yeH-hPrjxJTJbFUgPPx8-26" value="next" style="rounded=0;whiteSpace=wrap;html=1;" vertex="1" parent="1">
          <mxGeometry x="205" y="140" width="110" height="60" as="geometry" />
        </mxCell>
        <mxCell id="yeH-hPrjxJTJbFUgPPx8-27" value="data" style="rounded=0;whiteSpace=wrap;html=1;" vertex="1" parent="1">
          <mxGeometry x="205" y="80" width="110" height="60" as="geometry" />
        </mxCell>
        <mxCell id="yeH-hPrjxJTJbFUgPPx8-28" style="edgeStyle=orthogonalEdgeStyle;rounded=0;orthogonalLoop=1;jettySize=auto;html=1;exitX=1;exitY=0.5;exitDx=0;exitDy=0;entryX=0;entryY=0.5;entryDx=0;entryDy=0;" edge="1" parent="1" source="yeH-hPrjxJTJbFUgPPx8-29" target="yeH-hPrjxJTJbFUgPPx8-33">
          <mxGeometry relative="1" as="geometry" />
        </mxCell>
        <mxCell id="yeH-hPrjxJTJbFUgPPx8-29" value="next" style="rounded=0;whiteSpace=wrap;html=1;" vertex="1" parent="1">
          <mxGeometry x="395" y="140" width="110" height="60" as="geometry" />
        </mxCell>
        <mxCell id="yeH-hPrjxJTJbFUgPPx8-30" value="data" style="rounded=0;whiteSpace=wrap;html=1;" vertex="1" parent="1">
          <mxGeometry x="395" y="80" width="110" height="60" as="geometry" />
        </mxCell>
        <mxCell id="yeH-hPrjxJTJbFUgPPx8-31" style="edgeStyle=orthogonalEdgeStyle;rounded=0;orthogonalLoop=1;jettySize=auto;html=1;exitX=1;exitY=0.5;exitDx=0;exitDy=0;" edge="1" parent="1" source="yeH-hPrjxJTJbFUgPPx8-32" target="yeH-hPrjxJTJbFUgPPx8-34">
          <mxGeometry relative="1" as="geometry">
            <mxPoint x="765" y="170" as="targetPoint" />
          </mxGeometry>
        </mxCell>
        <mxCell id="yeH-hPrjxJTJbFUgPPx8-32" value="next" style="rounded=0;whiteSpace=wrap;html=1;" vertex="1" parent="1">
          <mxGeometry x="585" y="140" width="110" height="60" as="geometry" />
        </mxCell>
        <mxCell id="yeH-hPrjxJTJbFUgPPx8-33" value="data" style="rounded=0;whiteSpace=wrap;html=1;" vertex="1" parent="1">
          <mxGeometry x="585" y="80" width="110" height="60" as="geometry" />
        </mxCell>
        <mxCell id="yeH-hPrjxJTJbFUgPPx8-34" value="NULL" style="text;html=1;strokeColor=none;fillColor=none;align=center;verticalAlign=middle;whiteSpace=wrap;rounded=0;" vertex="1" parent="1">
          <mxGeometry x="735" y="155" width="60" height="30" as="geometry" />
        </mxCell>
        <mxCell id="yeH-hPrjxJTJbFUgPPx8-35" value="" style="endArrow=classic;html=1;rounded=0;exitX=0;exitY=0.5;exitDx=0;exitDy=0;" edge="1" parent="1" source="yeH-hPrjxJTJbFUgPPx8-27" target="yeH-hPrjxJTJbFUgPPx8-36">
          <mxGeometry width="50" height="50" relative="1" as="geometry">
            <mxPoint x="445" y="229" as="sourcePoint" />
            <mxPoint x="145" y="109" as="targetPoint" />
          </mxGeometry>
        </mxCell>
        <mxCell id="yeH-hPrjxJTJbFUgPPx8-36" value="Head" style="text;html=1;strokeColor=none;fillColor=none;align=center;verticalAlign=middle;whiteSpace=wrap;rounded=0;" vertex="1" parent="1">
          <mxGeometry x="115" y="94" width="60" height="30" as="geometry" />
        </mxCell>
        <mxCell id="yeH-hPrjxJTJbFUgPPx8-43" value="end" style="ellipse;whiteSpace=wrap;html=1;" vertex="1" parent="1">
          <mxGeometry x="740" y="425" width="70" height="50" as="geometry" />
        </mxCell>
      </root>
    </mxGraphModel>
  </diagram>
</mxfile>
